<svg width="24" height="20" viewBox="0 0 24 20" fill="none" xmlns="http://www.w3.org/2000/svg">
<path fill-rule="evenodd" clip-rule="evenodd" d="M0 10C0 9.62119 0.150482 9.25789 0.418343 8.99003C0.686203 8.72217 1.0495 8.57169 1.42831 8.57169L19.1212 8.57168L12.988 2.44136C12.8552 2.30856 12.7499 2.15091 12.678 1.9774C12.6061 1.80389 12.5691 1.61792 12.5691 1.43012C12.5691 1.24231 12.6061 1.05634 12.678 0.882833C12.7499 0.709324 12.8552 0.55167 12.988 0.418871C13.1208 0.286072 13.2785 0.180731 13.452 0.10886C13.6255 0.0369892 13.8114 0 13.9992 0C14.1871 0 14.373 0.0369892 14.5465 0.10886C14.72 0.180731 14.8777 0.286072 15.0105 0.418871L23.5804 8.98875C23.7134 9.12143 23.8189 9.27905 23.8909 9.45257C23.9629 9.6261 24 9.81213 24 10C24 10.1879 23.9629 10.3739 23.8909 10.5474C23.8189 10.721 23.7134 10.8786 23.5804 11.0112L15.0105 19.5811C14.7423 19.8493 14.3785 20 13.9992 20C13.62 20 13.2562 19.8493 12.988 19.5811C12.7198 19.3129 12.5691 18.9492 12.5691 18.5699C12.5691 18.1906 12.7198 17.8268 12.988 17.5586L19.1212 11.4283L1.42831 11.4283C1.0495 11.4283 0.686203 11.2778 0.418343 11.01C0.150482 10.7421 0 10.3788 0 10Z" fill="#FF00E5"/>
</svg>
