<svg width="80" height="80" viewBox="0 0 80 80" fill="none" xmlns="http://www.w3.org/2000/svg">
<g clip-path="url(#clip0_16185_16525)">
<path d="M39.6905 10.0798C39.7885 10.026 39.8987 9.99847 40.0105 9.99976C40.1205 9.99932 40.2289 10.0268 40.3255 10.0798C40.4398 10.1483 40.5332 10.2469 40.5955 10.3648L74.8805 68.6998C75.0605 68.9998 75.0555 69.3198 74.8905 69.6148C74.827 69.7358 74.7342 69.839 74.6205 69.9148C74.5215 69.9755 74.4065 70.0051 74.2905 69.9998H5.73046C5.6144 70.0054 5.49935 69.9758 5.40046 69.9148C5.28673 69.839 5.19389 69.7358 5.13046 69.6148C5.04807 69.476 5.00542 69.3172 5.00718 69.1558C5.00894 68.9945 5.05505 68.8367 5.14046 68.6998L39.4205 10.3648C39.483 10.247 39.5763 10.1485 39.6905 10.0798ZM44.9105 7.82976C44.4155 6.96758 43.7018 6.25126 42.8415 5.75312C41.9812 5.25499 41.0046 4.99268 40.0105 4.99268C39.0163 4.99268 38.0398 5.25499 37.1794 5.75312C36.3191 6.25126 35.6054 6.96758 35.1105 7.82976L0.825462 66.1648C-1.45954 70.0548 1.28046 74.9998 5.72546 74.9998H74.2905C78.7355 74.9998 81.4805 70.0498 79.1905 66.1648L44.9105 7.82976Z" fill="#F31819"/>
<path d="M35.0105 59.9998C35.0105 59.3431 35.1398 58.693 35.3911 58.0863C35.6423 57.4797 36.0106 56.9285 36.4749 56.4642C36.9392 55.9999 37.4904 55.6316 38.097 55.3804C38.7037 55.1291 39.3539 54.9998 40.0105 54.9998C40.6671 54.9998 41.3173 55.1291 41.9239 55.3804C42.5305 55.6316 43.0817 55.9999 43.546 56.4642C44.0103 56.9285 44.3786 57.4797 44.6299 58.0863C44.8811 58.693 45.0105 59.3431 45.0105 59.9998C45.0105 61.3258 44.4837 62.5976 43.546 63.5353C42.6083 64.473 41.3365 64.9998 40.0105 64.9998C38.6844 64.9998 37.4126 64.473 36.4749 63.5353C35.5373 62.5976 35.0105 61.3258 35.0105 59.9998ZM35.5005 29.9748C35.4339 29.344 35.5007 28.7062 35.6965 28.1029C35.8923 27.4996 36.2127 26.9442 36.6371 26.4727C37.0614 26.0012 37.5801 25.6242 38.1595 25.3662C38.739 25.1081 39.3662 24.9748 40.0005 24.9748C40.6348 24.9748 41.262 25.1081 41.8414 25.3662C42.4208 25.6242 42.9395 26.0012 43.3639 26.4727C43.7882 26.9442 44.1087 27.4996 44.3045 28.1029C44.5003 28.7062 44.567 29.344 44.5005 29.9748L42.7505 47.5098C42.6917 48.1986 42.3765 48.8403 41.8672 49.3079C41.358 49.7756 40.6918 50.035 40.0005 50.035C39.3091 50.035 38.6429 49.7756 38.1337 49.3079C37.6245 48.8403 37.3093 48.1986 37.2505 47.5098L35.5005 29.9748Z" fill="#F31819"/>
</g>
<defs>
<clipPath id="clip0_16185_16525">
<rect width="80" height="80" fill="white"/>
</clipPath>
</defs>
</svg>
