<svg xmlns="http://www.w3.org/2000/svg" width="16" height="16" fill="none">
  <path fill="#1565D8" fill-rule="evenodd" d="M13 1H3v8h10V1ZM2 8H1a1 1 0 0 0-1 1v4a1 1 0 0 0 1 1v1a1 1 0 0 0 1 1h12a1 1 0 0 0 1-1v-1a1 1 0 0 0 1-1V9a1 1 0 0 0-1-1h-1V1a1 1 0 0 0-1-1H3a1 1 0 0 0-1 1v7ZM1 9h1a1 1 0 0 0 1 1h10a1 1 0 0 0 1-1h1v4H1V9Zm11-7h-.773v6H12V2ZM9.818 2h-.363v6h.363V2Zm1.091 0h-.727v6h.727V2ZM5.091 2H4v6h1.09V2Zm3.636 0H8v6h.727V2ZM6.182 2h-.364v6h.364V2Zm1.454 0h-1.09v6h1.09V2ZM14 14v1H2v-1h12Zm-9.5-3a.5.5 0 0 1 0 1h-2a.5.5 0 0 1 0-1h2Zm9.5.5a.5.5 0 1 0-1 0 .5.5 0 0 0 1 0Z" clip-rule="evenodd"/>
</svg>