<svg width="12" height="12" viewBox="0 0 12 12" fill="none" xmlns="http://www.w3.org/2000/svg">
<g clip-path="url(#clip0_17539_2119)">
<path d="M11.1857 3.1875H10.4972C10.5013 3.13608 10.5 3.32927 10.5 0.814336C10.5 0.365297 10.1347 0 9.68566 0H2.31434C1.8653 0 1.5 0.365297 1.5 0.814336C1.5 3.32386 1.49871 3.1357 1.50279 3.1875H0.814336C0.365297 3.1875 0 3.5528 0 4.00184V8.37316C0 8.8222 0.365297 9.1875 0.814336 9.1875H2.8125V11.1857C2.8125 11.6347 3.1778 12 3.62684 12H8.37316C8.8222 12 9.1875 11.6347 9.1875 11.1857V9.1875H11.1857C11.6347 9.1875 12 8.8222 12 8.37316V4.00184C12 3.5528 11.6347 3.1875 11.1857 3.1875ZM2.25 3.12316V0.814336C2.25 0.778852 2.27885 0.75 2.31434 0.75H9.68566C9.72115 0.75 9.75 0.778852 9.75 0.814336V3.12316C9.75 3.15865 9.72115 3.1875 9.68566 3.1875H2.31434C2.27885 3.1875 2.25 3.15865 2.25 3.12316ZM8.4375 11.1857C8.4375 11.2211 8.40865 11.25 8.37316 11.25H3.62684C3.59135 11.25 3.5625 11.2211 3.5625 11.1857V7.37684C3.5625 7.34135 3.59135 7.3125 3.62684 7.3125H8.37316C8.40865 7.3125 8.4375 7.34135 8.4375 7.37684V11.1857ZM11.25 8.37316C11.25 8.40865 11.2211 8.4375 11.1857 8.4375H9.1875V7.37684C9.1875 6.9278 8.8222 6.5625 8.37316 6.5625H3.62684C3.1778 6.5625 2.8125 6.9278 2.8125 7.37684V8.4375H0.814336C0.778852 8.4375 0.75 8.40865 0.75 8.37316V4.00184C0.75 3.96635 0.778852 3.9375 0.814336 3.9375H11.1857C11.2211 3.9375 11.25 3.96635 11.25 4.00184V8.37316Z" fill="#1565D8"/>
<path d="M10.125 5.25H9.5625C9.35541 5.25 9.1875 5.08209 9.1875 4.875C9.1875 4.66791 9.35541 4.5 9.5625 4.5H10.125C10.3321 4.5 10.5 4.66791 10.5 4.875C10.5 5.08209 10.3321 5.25 10.125 5.25Z" fill="#1565D8"/>
<path d="M7.125 8.8125H4.875C4.66791 8.8125 4.5 8.64459 4.5 8.4375C4.5 8.23041 4.66791 8.0625 4.875 8.0625H7.125C7.33209 8.0625 7.5 8.23041 7.5 8.4375C7.5 8.64459 7.33209 8.8125 7.125 8.8125Z" fill="#1565D8"/>
<path d="M7.125 10.5H4.875C4.66791 10.5 4.5 10.3321 4.5 10.125C4.5 9.91791 4.66791 9.75 4.875 9.75H7.125C7.33209 9.75 7.5 9.91791 7.5 10.125C7.5 10.3321 7.33209 10.5 7.125 10.5Z" fill="#1565D8"/>
</g>
<defs>
<clipPath id="clip0_17539_2119">
<rect width="12" height="12" fill="white"/>
</clipPath>
</defs>
</svg>
