<svg xmlns="http://www.w3.org/2000/svg" width="16" height="16" fill="none">
  <g clip-path="url(#a)">
    <path fill="#1565D8" d="m1.19 4.093 2.904-2.904c.134-.134.299-.232.477-.285V.855h10a.57.57 0 0 1 .572.572V14.57a.57.57 0 0 1-.572.571H1.428a.57.57 0 0 1-.571-.571V4.9c0-.303.12-.593.334-.807Zm9.095-1.952H5.714v1.857h4.571V2.141ZM2.143 13.855h11.714V2.141h-2.429V4.57a.57.57 0 0 1-.571.571H5.143a.57.57 0 0 1-.572-.571V2.53L2.143 4.96v8.896ZM8 6.748a2.572 2.572 0 1 1-.002 5.144A2.572 2.572 0 0 1 8 6.748Zm0 4a1.428 1.428 0 1 0 0-2.856 1.428 1.428 0 0 0 0 2.856Z"/>
  </g>
  <defs>
    <clipPath id="a">
      <path fill="#fff" d="M16 0H0v16h16z"/>
    </clipPath>
  </defs>
</svg>