<svg xmlns="http://www.w3.org/2000/svg" width="15" height="14" fill="none">
  <path fill="#1565D8" fill-rule="evenodd" d="M.75 13h5.37a.32.32 0 0 0 .32-.32.33.33 0 0 0-.32-.33H.75a.1.1 0 0 1-.1-.1V.74a.1.1 0 0 1 .1-.1h9.5a.1.1 0 0 1 .1.1V5.5a.32.32 0 0 0 .49.32.33.33 0 0 0 .16-.28V.76a.76.76 0 0 0-.75-.76H.75A.75.75 0 0 0 0 .76v11.48a.76.76 0 0 0 .75.76Zm3.31-9.24a.3.3 0 0 1-.3.3H1.52a.3.3 0 0 1-.3-.3V1.52c0-.17.13-.3.3-.3h2.24c.17 0 .3.13.3.3v2.24Zm4.06 7.54a.43.43 0 0 1 0-.6.41.41 0 0 1 .3-.13h5.16l-1.8-1.84a.44.44 0 0 1 0-.6.41.41 0 0 1 .6 0l2.5 2.57a.43.43 0 0 1 .12.3.44.44 0 0 1-.12.3l-2.5 2.57a.42.42 0 0 1-.3.13.4.4 0 0 1-.3-.13.43.43 0 0 1-.11-.3.44.44 0 0 1 .12-.3l1.79-1.84H8.42a.41.41 0 0 1-.3-.13ZM4.04 5.86a.3.3 0 0 1 .02.12V8.2a.3.3 0 0 1-.3.3H1.52a.3.3 0 0 1-.3-.3V5.98a.3.3 0 0 1 .3-.3h2.24a.3.3 0 0 1 .28.18ZM1.83 7.9h1.62V6.28H1.83v1.63Zm7-6.18H4.98a.3.3 0 1 0 0 .6h3.85a.3.3 0 0 0 0-.6ZM4.98 7.4h1.2a.3.3 0 0 1 0 .6h-1.2a.3.3 0 1 1 0-.6Zm2.88-1.22H4.98a.3.3 0 0 0 0 .6h2.88a.3.3 0 0 0 0-.6ZM6.18 3.55h-1.2a.3.3 0 0 1 0-.6h1.2a.3.3 0 1 1 0 .6Z" clip-rule="evenodd"/>
</svg>