<svg xmlns="http://www.w3.org/2000/svg" width="16" height="16" fill="none">
  <path fill="#CF0909" d="M6.08 6.4c.1 0 .2.04.27.12a.4.4 0 0 1 .11.28v4.8c0 .1-.04.2-.11.28a.38.38 0 0 1-.55 0 .4.4 0 0 1-.1-.28V6.8c0-.1.03-.2.1-.28a.38.38 0 0 1 .28-.12ZM8 6.4c.1 0 .2.04.27.12a.4.4 0 0 1 .11.28v4.8c0 .1-.04.2-.1.28a.38.38 0 0 1-.55 0 .4.4 0 0 1-.11-.28V6.8c0-.1.04-.2.1-.28A.38.38 0 0 1 8 6.4Zm2.3.4a.4.4 0 0 0-.1-.28.38.38 0 0 0-.55 0 .4.4 0 0 0-.11.28v4.8c0 .1.04.2.11.28a.38.38 0 0 0 .54 0 .4.4 0 0 0 .12-.28V6.8Z"/>
  <path fill="#CF0909" fill-rule="evenodd" d="M13 4.4c0 .21-.08.42-.23.57a.75.75 0 0 1-.54.23h-.38v7.2c0 .42-.17.83-.45 1.13-.3.3-.68.47-1.1.47H5.7c-.42 0-.8-.17-1.1-.47-.28-.3-.45-.7-.45-1.13V5.2h-.38c-.2 0-.4-.08-.54-.23A.82.82 0 0 1 3 4.4v-.8c0-.21.08-.42.23-.57a.75.75 0 0 1 .54-.23h2.7a.8.8 0 0 1 .22-.57.75.75 0 0 1 .54-.23h1.54c.2 0 .4.08.54.23.15.15.23.36.23.57h2.7c.2 0 .39.08.53.23.15.15.23.36.23.57v.8Zm-7.99.8-.09.05v7.15c0 .21.08.42.23.57.14.15.34.23.54.23h4.62c.2 0 .4-.08.54-.23a.82.82 0 0 0 .23-.57V5.25l-.1-.05H5.02Zm-1.24-.8v-.8h8.46v.8H3.77Z" clip-rule="evenodd"/>
</svg>