<svg width="16" height="16" viewBox="0 0 16 16" fill="none" xmlns="http://www.w3.org/2000/svg">
<path fill-rule="evenodd" clip-rule="evenodd" d="M0.43934 2.43934C0.158035 2.72064 2.18334e-09 3.10218 2.18334e-09 3.5V10.5C-1.67498e-05 10.8106 0.0963656 11.1135 0.275844 11.3669C0.455323 11.6204 0.709048 11.8119 1.002 11.915C0.990095 12.1813 1.03155 12.4473 1.12393 12.6974C1.21632 12.9475 1.35776 13.1765 1.53995 13.3712C1.72214 13.5658 1.94139 13.722 2.18483 13.8306C2.42827 13.9393 2.69097 13.9982 2.95749 14.0039C3.22402 14.0095 3.48899 13.9619 3.73682 13.8636C3.98465 13.7654 4.21035 13.6187 4.40065 13.432C4.59094 13.2453 4.742 13.0224 4.84492 12.7765C4.94785 12.5306 5.00058 12.2666 5 12H10C10 12.5304 10.2107 13.0391 10.5858 13.4142C10.9609 13.7893 11.4696 14 12 14C12.5304 14 13.0391 13.7893 13.4142 13.4142C13.7893 13.0391 14 12.5304 14 12H14.5C14.8978 12 15.2794 11.842 15.5607 11.5607C15.842 11.2794 16 10.8978 16 10.5V8.351C16.0001 8.01003 15.8841 7.67919 15.671 7.413L14.19 5.563C14.0496 5.3875 13.8716 5.24579 13.6691 5.14835C13.4666 5.0509 13.2447 5.0002 13.02 5H12V3.5C12 3.10218 11.842 2.72064 11.5607 2.43934C11.2794 2.15804 10.8978 2 10.5 2H1.5C1.10218 2 0.720644 2.15804 0.43934 2.43934ZM2.0331 10.2484C1.72951 10.4161 1.4748 10.66 1.294 10.956C1.20631 10.9163 1.13192 10.8522 1.07977 10.7713C1.02762 10.6905 0.999921 10.5962 1 10.5V3.5C1 3.36739 1.05268 3.24021 1.14645 3.14645C1.24021 3.05268 1.36739 3 1.5 3H10.5C10.6326 3 10.7598 3.05268 10.8536 3.14645C10.9473 3.24021 11 3.36739 11 3.5V10.268C10.6963 10.4439 10.4439 10.6963 10.268 11H4.732C4.55883 10.6995 4.31045 10.4492 4.01125 10.2737C3.71206 10.0982 3.37235 10.0036 3.02553 9.99916C2.6787 9.99472 2.33669 10.0806 2.0331 10.2484ZM13 10.268C12.6959 10.0924 12.3511 10 12 10V6H13.02C13.0949 6.00011 13.1689 6.01706 13.2364 6.0496C13.3039 6.08214 13.3632 6.12944 13.41 6.188L14.89 8.038C14.961 8.12651 14.9998 8.23653 15 8.35V10.5C15 10.6326 14.9473 10.7598 14.8536 10.8536C14.7598 10.9473 14.6326 11 14.5 11H13.732C13.5565 10.696 13.304 10.4435 13 10.268ZM2.29289 11.2929C2.48043 11.1054 2.73478 11 3 11C3.26522 11 3.51957 11.1054 3.70711 11.2929C3.89464 11.4804 4 11.7348 4 12C4 12.2652 3.89464 12.5196 3.70711 12.7071C3.51957 12.8946 3.26522 13 3 13C2.73478 13 2.48043 12.8946 2.29289 12.7071C2.10536 12.5196 2 12.2652 2 12C2 11.7348 2.10536 11.4804 2.29289 11.2929ZM11.2929 11.2929C11.4804 11.1054 11.7348 11 12 11C12.2652 11 12.5196 11.1054 12.7071 11.2929C12.8946 11.4804 13 11.7348 13 12C13 12.2652 12.8946 12.5196 12.7071 12.7071C12.5196 12.8946 12.2652 13 12 13C11.7348 13 11.4804 12.8946 11.2929 12.7071C11.1054 12.5196 11 12.2652 11 12C11 11.7348 11.1054 11.4804 11.2929 11.2929ZM3.57955 4.5H3V9H3.57955V4.5ZM4.90909 4.5H4.63636V9H4.90909V4.5ZM4.36364 4.5H3.81818V9H4.36364V4.5ZM9 4.5H8.18182V9H9V4.5ZM6 4.5H5.45455V9H6V4.5ZM7.63636 4.5H7.36364V9H7.63636V4.5ZM7.09091 4.5H6.27273V9H7.09091V4.5Z" fill="#1565D8"/>
</svg>
