<svg width="29" height="8" viewBox="0 0 29 8" fill="none" xmlns="http://www.w3.org/2000/svg">
<path fill-rule="evenodd" clip-rule="evenodd" d="M0 3.99996C0 3.81055 0.0627003 3.6289 0.174309 3.49497C0.285917 3.36104 0.437292 3.2858 0.595131 3.2858L26.9672 3.2858L24.4117 1.55397C24.3563 1.48758 24.3124 1.40875 24.2825 1.32199C24.2526 1.23524 24.2371 1.14225 24.2371 1.04835C24.2371 0.954449 24.2526 0.861465 24.2825 0.77471C24.3124 0.687955 24.3563 0.609128 24.4117 0.542729C24.467 0.476329 24.5327 0.423658 24.605 0.387723C24.6773 0.351788 24.7548 0.333293 24.833 0.333293C24.9113 0.333293 24.9888 0.351788 25.0611 0.387723C25.1334 0.423658 25.199 0.476329 25.2544 0.542729L28.8252 3.49434C28.8806 3.56067 28.9246 3.63948 28.9546 3.72625C28.9846 3.81301 29 3.90602 29 3.99996C29 4.0939 28.9846 4.18691 28.9546 4.27367C28.9246 4.36044 28.8806 4.43924 28.8252 4.50558L25.2544 7.45719C25.1426 7.59129 24.9911 7.66663 24.833 7.66663C24.675 7.66663 24.5234 7.59129 24.4117 7.45719C24.2999 7.32309 24.2371 7.14121 24.2371 6.95157C24.2371 6.76192 24.2999 6.58004 24.4117 6.44594L26.9672 4.71412L0.595131 4.71412C0.437292 4.71412 0.285917 4.63887 0.174309 4.50494C0.0627003 4.37101 0 4.18937 0 3.99996Z" fill="white"/>
</svg>
